# xmcd
#
# Track frame offsets:
#	150
#	14117
#	26017
#	40547
#	52970
#	63405
#	81025
#	91910
#	104072
#	115270
#	126832
#	140332
#	154625
#
# Disc length: 2230
#
# Revision: 2
# Processed by: cddbd v1.5.1PL0 Copyright (c) Steve Scherf et al.
# Submitted via: EasyCDDAExtractor 4.5.0.2
# Normalized: r0:TDELIM( - ),TSWAP
#
DISCID=a708b40d
DTITLE=Various Artist - The Country Collection - Disc 8
DYEAR=1997
DGENRE=Country
TTITLE0=Donna Fargo - You Can't Be A Beacon (If You're Light Don't Shine)
TTITLE1=Don Gibson - I Can't Stop Lovin' You
TTITLE2=Johnny Paycheck - Friend, Lover, Wife
TTITLE3=Lynn Anderson - How Can I Unlove You
TTITLE4=Faron Young - Live Fast, Love Hard, Die Young
TTITLE5=Al Hirt and Ace Cannon - Always On My Mind
TTITLE6=Moe Bandy - Back In The Saddle Again
TTITLE7=Marion Worth - Crying In The Chapel
TTITLE8=Freddy Weller - Another Night of Love
TTITLE9=Stonewall Jackson - Have I Told You Lately That I Love You
TTITLE10=Wanda Jackson - I Fall To Pieces
TTITLE11=Anthony Armstrong Jones - Take A Letter Maria
TTITLE12=Ace Cannon - Your Cheatin' Heart
EXTD=
EXTT0=
EXTT1=
EXTT2=
EXTT3=
EXTT4=
EXTT5=
EXTT6=
EXTT7=
EXTT8=
EXTT9=
EXTT10=
EXTT11=
EXTT12=
PLAYORDER=
